<?xml version="1.0" encoding="utf-8"?>
<!-- Generator: Adobe Illustrator 19.2.0, SVG Export Plug-In . SVG Version: 6.00 Build 0)  -->
<svg version="1.1" xmlns="http://www.w3.org/2000/svg" xmlns:xlink="http://www.w3.org/1999/xlink" x="10px" y="0px"
	 viewBox="0 0 777.7 192" style="enable-background:new 0 0 777.7 192;" xml:space="preserve">
<style type="text/css">
	.st0{fill:#16A98D;}
	.st1{fill:#4280A1;}
	.st2{fill:#4380A1;}
	.st3{fill:#FFFFFF;}
</style>
<g id="Lag_1">
	<g>
		<g>
			<path class="st0" d="M382.8,189.6v-85.2h17.9c8.6,0,15.3,0.8,20.3,2.5c5.3,1.7,10.2,4.5,14.5,8.4c8.8,8,13.2,18.6,13.2,31.6
				c0,13.1-4.6,23.7-13.7,31.8c-4.6,4-9.4,6.9-14.5,8.4c-4.7,1.6-11.4,2.4-20,2.4H382.8z M395.6,177.5h5.8c5.8,0,10.6-0.6,14.4-1.8
				c3.8-1.3,7.3-3.3,10.4-6.1c6.3-5.8,9.5-13.3,9.5-22.6c0-9.3-3.1-16.9-9.4-22.7c-5.6-5.2-13.9-7.8-24.9-7.8h-5.8V177.5z"/>
		</g>
		<g>
			<path class="st0" d="M458.7,189.6v-85.2h17.9c8.6,0,15.3,0.8,20.3,2.5c5.3,1.7,10.2,4.5,14.5,8.4c8.8,8,13.2,18.6,13.2,31.6
				c0,13.1-4.6,23.7-13.7,31.8c-4.6,4-9.4,6.9-14.5,8.4c-4.7,1.6-11.4,2.4-20,2.4H458.7z M471.6,177.5h5.8c5.8,0,10.6-0.6,14.4-1.8
				c3.8-1.3,7.3-3.3,10.4-6.1c6.3-5.8,9.5-13.3,9.5-22.6c0-9.3-3.1-16.9-9.4-22.7c-5.6-5.2-13.9-7.8-24.9-7.8h-5.8V177.5z"/>
		</g>
		<g>
			<path class="st0" d="M247.8,189.6v-85.2h12.8c5.7,0,10.2,0.4,13.6,1.3c3.4,0.9,6.3,2.4,8.7,4.5c2.4,2.2,4.3,4.9,5.7,8.1
				c1.4,3.3,2.2,6.6,2.2,9.9c0,6.1-2.3,11.3-7,15.5c4.5,1.5,8.1,4.2,10.7,8.1c2.6,3.8,4,8.3,4,13.4c0,6.7-2.4,12.3-7.1,16.9
				c-2.8,2.8-6,4.8-9.5,5.9c-3.9,1.1-8.7,1.6-14.5,1.6H247.8z M260.6,140.9h4c4.8,0,8.3-1.1,10.5-3.2c2.2-2.1,3.3-5.2,3.3-9.4
				c0-4-1.1-7.1-3.4-9.1c-2.3-2.1-5.6-3.1-9.9-3.1h-4.5V140.9z M260.6,177.5h7.9c5.8,0,10.1-1.1,12.8-3.4c2.9-2.5,4.3-5.6,4.3-9.4
				c0-3.7-1.4-6.8-4.1-9.3c-2.7-2.5-7.5-3.7-14.4-3.7h-6.5V177.5z"/>
		</g>
		<g>
			<path class="st0" d="M321.3,104.4v51.3c0,7.3,1.2,12.7,3.6,16.1c3.6,4.9,8.6,7.3,15.1,7.3c6.5,0,11.6-2.4,15.1-7.3
				c2.4-3.3,3.6-8.6,3.6-16.1v-51.3h12.9v54.9c0,9-2.8,16.4-8.4,22.2c-6.3,6.5-14,9.7-23.2,9.7c-9.2,0-16.9-3.2-23.1-9.7
				c-5.6-5.8-8.4-13.2-8.4-22.2v-54.9H321.3z"/>
		</g>
		<g>
			<path class="st0" d="M550.1,152.8l-27.8-48.4h14.8l19.5,34l19.5-34h14.8L563,152.8v36.8h-12.9V152.8z"/>
		</g>
	</g>
</g>
<g id="Lag_3">
	<g>
		<path class="st1" d="M283.6,42.8h44c0,4.5-0.2,8.6-0.6,12.3c-0.4,3.7-1.1,7.1-2.3,10.3c-1.6,4.4-3.7,8.4-6.4,11.8
			c-2.7,3.4-5.9,6.3-9.6,8.6c-3.7,2.3-7.7,4.1-12,5.3c-4.4,1.2-9,1.8-13.8,1.8c-6.6,0-12.7-1.1-18.1-3.3c-5.5-2.2-10.2-5.3-14.1-9.2
			c-3.9-4-7-8.7-9.2-14.2c-2.2-5.5-3.3-11.7-3.3-18.4c0-6.6,1.1-12.7,3.2-18.3c2.1-5.5,5.2-10.3,9.2-14.2c4-3.9,8.7-7,14.3-9.2
			c5.6-2.2,11.8-3.3,18.6-3.3c8.9,0,16.7,1.9,23.4,5.8c6.7,3.8,12,9.8,15.9,17.9l-21,8.7c-2-4.7-4.5-8-7.6-10.1
			c-3.1-2-6.7-3.1-10.7-3.1c-3.3,0-6.3,0.6-9,1.9c-2.7,1.2-5,3-7,5.3c-1.9,2.3-3.4,5.1-4.5,8.3c-1.1,3.2-1.6,6.9-1.6,10.8
			c0,3.6,0.5,7,1.4,10.1c0.9,3.1,2.4,5.8,4.2,8c1.9,2.3,4.2,4,7,5.3c2.8,1.2,6,1.9,9.7,1.9c2.2,0,4.3-0.2,6.3-0.7
			c2-0.5,3.9-1.3,5.5-2.4c1.6-1.1,3-2.5,4-4.2c1.1-1.7,1.8-3.8,2.1-6.3h-18.2V42.8z"/>
	</g>
	<g>
		<path class="st1" d="M390.6,75.7H359l-5.1,14.8h-23.6l32.4-85.2h24.2l32.4,85.2h-23.6L390.6,75.7z M384.8,58.9l-9.9-28.4
			l-9.9,28.4H384.8z"/>
	</g>
	<g>
		<path class="st1" d="M425.2,90.5l14.5-85.2h21.9l17.1,45.4l17-45.4h21.9L532,90.5h-22l-7.3-49l-20.1,49h-8.8l-19.1-49l-7.3,49
			H425.2z"/>
	</g>
	<g>
		<path class="st1" d="M568.2,5.3v85.2H546V5.3H568.2z"/>
	</g>
	<g>
		<path class="st1" d="M586,90.5V5.3h22.2l40.9,52.1V5.3h22v85.2h-22l-40.9-52.1v52.1H586z"/>
	</g>
	<g>
		<path class="st1" d="M732,42.8h44c0,4.5-0.2,8.6-0.6,12.3c-0.4,3.7-1.1,7.1-2.3,10.3c-1.6,4.4-3.7,8.4-6.4,11.8
			c-2.7,3.4-5.9,6.3-9.6,8.6c-3.7,2.3-7.7,4.1-12,5.3c-4.4,1.2-9,1.8-13.8,1.8c-6.6,0-12.7-1.1-18.1-3.3c-5.5-2.2-10.2-5.3-14.1-9.2
			c-3.9-4-7-8.7-9.2-14.2c-2.2-5.5-3.3-11.7-3.3-18.4c0-6.6,1.1-12.7,3.2-18.3c2.1-5.5,5.2-10.3,9.2-14.2c4-3.9,8.7-7,14.3-9.2
			C719,4,725.2,2.9,732,2.9c8.9,0,16.7,1.9,23.4,5.8c6.7,3.8,12,9.8,15.9,17.9l-21,8.7c-2-4.7-4.5-8-7.6-10.1
			c-3.1-2-6.7-3.1-10.7-3.1c-3.3,0-6.3,0.6-9,1.9c-2.7,1.2-5,3-6.9,5.3c-1.9,2.3-3.4,5.1-4.5,8.3c-1.1,3.2-1.6,6.9-1.6,10.8
			c0,3.6,0.5,7,1.4,10.1c0.9,3.1,2.4,5.8,4.2,8c1.9,2.3,4.2,4,7,5.3c2.8,1.2,6,1.9,9.7,1.9c2.2,0,4.3-0.2,6.3-0.7
			c2-0.5,3.9-1.3,5.5-2.4c1.6-1.1,3-2.5,4-4.2c1.1-1.7,1.8-3.8,2.1-6.3H732V42.8z"/>
	</g>
</g>
<g id="Lag_4">
	<path class="st2" d="M181.6,192h-165c-7.3,0-13.3-6-13.3-13.3v-165c0-7.3,6-13.3,13.3-13.3h165c7.3,0,13.3,6,13.3,13.3v165
		C194.9,186,188.9,192,181.6,192z"/>
</g>
<g id="Lag_2">
	<g>
		<circle class="st3" cx="28.3" cy="92.7" r="10"/>
		<circle class="st3" cx="117.1" cy="92.7" r="10"/>
		<path class="st3" d="M159,122c-0.2,15.6-3.1,24.5-17.9,39.2l-0.1,0.1c-1,1.1-2.2,2.3-3.4,3.4c-1.5,1.4-3.8,1.6-5.5,0.4l-2.2-1.6
			c-0.7-0.5-1.2-1.2-1.4-2c-0.3-1.5-0.1-3.2,0.6-4.6c1.7-3.1,5.5-4.3,8.6-2.8c11-11,13.3-18.9,14.4-35.9L159,122z"/>
		<g>
			<path class="st3" d="M43.1,140.8c25.5,12.5,58.4,15.5,82.8-1.1c5.5-3.8,0.3-12.9-5.3-9.1c-21.3,14.5-50,12.1-72.2,1.1
				C42.4,128.8,37.1,137.8,43.1,140.8L43.1,140.8z"/>
		</g>
		<g>
			<path class="st3" d="M97.8,32.5c-6-1.1-12.3-1.9-18.7-2.4c-10.2-0.7-18.8,7.5-18.8,17.7v0c3.7-0.3,7.4-0.4,10.5-0.4
				c21.8,0,65.3,6,65.8,35.3c0.2,11.2,17.7,11.3,17.5,0C153.5,52.6,123.9,37.3,97.8,32.5z"/>
		</g>
		<g>
			<path class="st3" d="M136.8,82.3c0,8-0.4,16.1,0,24.2c0.7,15.5,17,27.1,31.5,19.2c14.7-8.1,14.6-27.7,1.6-37.2
				c-6.5-4.7-13.3-9.1-19.9-13.7c-9.3-6.4-18.1,8.8-8.9,15.2c4.9,3.4,9.9,6.8,14.8,10.2c1.3,0.9,4.7,3.2,4.8,3.3
				c1.2,1.3,1.9,2.3,1.4,4.2c-0.4,1.7-1.5,2.5-2,2.6c-6.5,2.2-5.8-5.4-5.8-9.3c0-6.2,0-12.4,0-18.6C154.4,71,136.8,70.9,136.8,82.3
				L136.8,82.3z"/>
		</g>
	</g>
</g>
</svg>
